# xmcd
#
# Track frame offsets:
#	150
#	8981
#	17513
#	27025
#	42865
#	53796
#	82032
#	100692
#	115334
#	130794
#	148861
#	160267
#	180202
#	189873
#	208094
#	220431
#	230778
#
# Disc length: 3385 seconds
#
# Revision: 1
# Processed by: cddbd v1.5.2PL0 Copyright (c) Steve Scherf et al.
# Submitted via: audiograbber 1.83.01
#
DISCID=e10d3711
DTITLE=Jognny Cash - Johnny Cash at San Quentin
DYEAR=1969
DGENRE=
TTITLE0=Big River
TTITLE1=I Still Miss Someone
TTITLE2=Wrech of tsanhe Old 97
TTITLE3=I Walk The Line
TTITLE4=I Don't Know Where I'm Bound
TTITLE5=Startville City Jail
TTITLE6=San Quentin
TTITLE7=San Quentin II
TTITLE8=Wanted Man
TTITLE9=A Boa Named Sue
TTITLE10=(There'll Be) Peace In the Valley
TTITLE11=Folsom Prison Blues
TTITLE12=Ring Of Fire
TTITLE13=He Turned the Water Into Wine
TTITLE14=Daddy Sang Bass
TTITLE15=The Old Account Was Settled Long Ago
TTITLE16=Closing Medley: Folsom Prison Blues
EXTD=
EXTT0=
EXTT1=
EXTT2=
EXTT3=
EXTT4=
EXTT5=
EXTT6=
EXTT7=
EXTT8=
EXTT9=
EXTT10=
EXTT11=
EXTT12=
EXTT13=
EXTT14=
EXTT15=
EXTT16=
PLAYORDER=
